<?xml version="1.0" encoding="utf-8"?>
<!-- Generator: Adobe Illustrator 27.6.1, SVG Export Plug-In . SVG Version: 6.00 Build 0)  -->
<svg version="1.1" id="_图层_1" xmlns="http://www.w3.org/2000/svg" xmlns:xlink="http://www.w3.org/1999/xlink" x="0px" y="0px"
	 viewBox="0 0 172 33.6" style="enable-background:new 0 0 172 33.6;" xml:space="preserve">
<style type="text/css">
	.st0{fill:#231815;}
</style>
<g>
	<path class="st0" d="M33.9,16.2c0,9-7.2,16.3-16.2,16.5V11.6h-0.8v21.2C8,32.6,0.8,25.2,0.8,16.2H0c0,9.5,7.8,17.3,17.3,17.3
		s17.3-7.8,17.3-17.3H33.9L33.9,16.2z"/>
	<g>
		<path class="st0" d="M17.8,8.3c0,0.3-0.2,0.5-0.5,0.5s-0.5-0.2-0.5-0.5s0.2-0.5,0.5-0.5S17.8,8,17.8,8.3z"/>
		<path class="st0" d="M21.5,8.3c2.3,0,4.1-1.8,4.1-4.1S23.8,0,21.5,0s-4.1,1.9-4.1,4.1c0-2.3-1.9-4.1-4.1-4.1S9.1,1.9,9.1,4.2
			s1.9,4.1,4.1,4.1c-2.3,0-4.1,1.9-4.1,4.1s1.9,4.1,4.1,4.1s4.1-1.9,4.1-4.1c0,2.3,1.9,4.1,4.1,4.1s4.1-1.9,4.1-4.1
			S23.8,8.3,21.5,8.3z M21.6,10.3l-4-1.6l1.6,3.9L19,12.7l-1.6-3.9l-1.6,3.9l-0.4-0.1l1.6-4l-4,1.6l-0.1-0.4l4-1.6L13,6.6V6.3l4,1.6
			l-1.6-4l0.4-0.2l1.6,4l1.6-4L19.3,4l-1.6,4l4-1.6l0.1,0.4l-4,1.6l4,1.6L21.6,10.3z"/>
	</g>
</g>
<g>
	<polygon class="st0" points="48.7,3 46.9,3 46.3,3 43.9,3 46.3,5.5 46.3,30.3 43.9,32.7 46.3,32.7 46.9,32.7 48,32.7 48.8,32.7 
		51.1,32.7 48.8,30.4 48.8,15.2 60.8,17.4 60.8,14.6 48.8,14.6 48.8,3.6 60.8,5.9 60.8,3 48.8,3 	"/>
	<polygon class="st0" points="67.6,3 65.7,3 65.1,3 62.6,3 65.1,5.5 65.1,30.3 62.6,32.7 65.1,32.7 65.7,32.7 66.8,32.7 67.6,32.7 
		69.9,32.7 67.6,30.4 	"/>
	<path class="st0" d="M161,16.6c0,0-0.6-2.3-2.5-3.9c-1-0.9-2.5-1.6-4.4-1.6c-3.5,0-6,2.1-7,3.2v-3h-5l2.5,2.5v16.5l-2.5,2.5h7.3
		l-2.3-2.3V14.7c2.6-2.9,5.6-3,5.6-3c4.3,0,5.5,4.2,5.8,6.4v12.1l-2.5,2.5h3.1h1.1l0,0h3.1l-2.3-2.3L161,16.6L161,16.6z"/>
	<polygon class="st0" points="113.9,14.6 117.5,11 109.6,11 113.1,14.5 106.9,27.5 106.6,26.9 100.1,13.5 102.6,11 98.9,11 98.9,11 
		98.9,11 94.8,11 97.4,13.6 103.8,26.9 105.5,30.4 105.9,31.2 106.3,32.1 107.7,32.1 107.7,29.2 107.3,28.3 	"/>
	<path class="st0" d="M80.5,10.8c-6,2.1-9.1,8.7-6.9,14.7c2.1,6,8.7,9.1,14.7,6.9c6-2.1,9.1-8.7,6.9-14.7
		C93.1,11.8,86.5,8.7,80.5,10.8z M88.1,32c-4.5,1.6-9.7-1.7-11.8-7.4c-2.1-5.7-0.1-11.6,4.4-13.2s9.7,1.7,11.8,7.4
		C94.5,24.5,92.6,30.4,88.1,32z"/>
	<path class="st0" d="M137.9,16.2c-0.1-0.2-0.2-0.4-0.4-0.7c-2.8-4.5-8.4-6.6-13.6-4.7c-6,2.1-9.1,8.7-6.9,14.7
		c2.1,6,8.7,9.1,14.7,6.9c6-2.1,7.8-9.1,3.4-13.6c-1.7-1.8-4.6-2.6-4.6-2.6H137.9L137.9,16.2z M134.4,19c4.4,5.6,1.5,10.7-2.9,12.3
		c-4.5,1.6-9.7-1.1-11.8-6.8c-1-2.9-1-5.9-0.2-8.3h10.2C130.9,16.4,133.1,17.4,134.4,19L134.4,19z M119.8,15.6
		c0.9-2,2.3-3.6,4.3-4.2c3.6-1.3,7.6,0.6,10.1,4.2H119.8L119.8,15.6z"/>
	<g>
		<polygon class="st0" points="169.7,30.3 169.7,11.2 167.8,11.2 167.2,11.2 164.7,11.2 167.2,13.7 167.2,30.1 164.7,32.6 
			167.2,32.6 167.8,32.6 168.9,32.6 169.7,32.6 172,32.6 		"/>
		<circle class="st0" cx="168" cy="6.2" r="2"/>
	</g>
</g>
</svg>
